<svg width="21" height="21" viewBox="0 0 21 21" fill="none" xmlns="http://www.w3.org/2000/svg">
<g id="Group">
<g id="Group_2">
<path id="Path" fill-rule="evenodd" clip-rule="evenodd" d="M8.79952 8.77344H12.1329C12.5912 8.77344 12.9662 9.14844 12.9662 9.60677V12.1509C12.9662 12.6109 12.5929 12.9843 12.1329 12.9843H8.79952C8.33952 12.9843 7.96619 12.6109 7.96619 12.1509V9.60677C7.96619 9.14677 8.33952 8.77344 8.79952 8.77344Z" stroke="white" stroke-width="1.5" stroke-linecap="round" stroke-linejoin="round"/>
<path id="Path_2" d="M9.06287 8.77346V7.72096C9.06287 6.94596 9.6912 6.31763 10.4662 6.31763C11.2412 6.31763 11.8695 6.94596 11.8695 7.72096V8.77179" stroke="white" stroke-width="1.5" stroke-linecap="round" stroke-linejoin="round"/>
<path id="Path_3" fill-rule="evenodd" clip-rule="evenodd" d="M5.4437 4.29016L9.89536 2.6685C10.2637 2.53433 10.6679 2.53433 11.0362 2.6685L15.4879 4.29016C16.4762 4.65016 17.1329 5.5885 17.1329 6.63933V10.6993C17.1329 13.6835 15.6095 14.9077 11.2954 17.3502C10.7812 17.641 10.1512 17.641 9.63703 17.3502C5.32286 14.9077 3.79953 13.6835 3.79953 10.6993V6.63933C3.79953 5.5885 4.4562 4.65016 5.4437 4.29016Z" stroke="white" stroke-width="1.5" stroke-linecap="round" stroke-linejoin="round"/>
</g>
</g>
</svg>
