<svg width="334" height="36" viewBox="0 0 334 36" fill="none" xmlns="http://www.w3.org/2000/svg">
<path d="M20.0595 23.2947H21.584V14.7681H20.0654L17.8377 16.3281V17.7935L19.959 16.3044H20.0595V23.2947ZM23.7303 17.2617V17.2853H25.1603V17.2617C25.1603 16.3931 25.763 15.8081 26.6552 15.8081C27.4943 15.8081 28.1088 16.3517 28.1088 17.1021C28.1088 17.7048 27.8193 18.148 26.6552 19.3298L23.813 22.237V23.2947H29.7338V22.0006H25.9048V21.9002L27.6893 20.1098C29.137 18.6798 29.6038 17.9235 29.6038 17.0076C29.6038 15.5835 28.3865 14.5554 26.7025 14.5554C24.9534 14.5554 23.7303 15.6663 23.7303 17.2617ZM32.341 22.3906C32.9023 22.3906 33.2864 21.9888 33.2864 21.457C33.2864 20.9193 32.9023 20.5234 32.341 20.5234C31.7855 20.5234 31.3955 20.9193 31.3955 21.457C31.3955 21.9888 31.7855 22.3906 32.341 22.3906ZM32.341 17.9589C32.9023 17.9589 33.2864 17.563 33.2864 17.0312C33.2864 16.4935 32.9023 16.0976 32.341 16.0976C31.7855 16.0976 31.3955 16.4935 31.3955 17.0312C31.3955 17.563 31.7855 17.9589 32.341 17.9589ZM34.9954 17.2617V17.2853H36.4254V17.2617C36.4254 16.3931 37.0281 15.8081 37.9203 15.8081C38.7594 15.8081 39.3739 16.3517 39.3739 17.1021C39.3739 17.7048 39.0844 18.148 37.9203 19.3298L35.0781 22.237V23.2947H40.9989V22.0006H37.1699V21.9002L38.9544 20.1098C40.4021 18.6798 40.8689 17.9235 40.8689 17.0076C40.8689 15.5835 39.6516 14.5554 37.9676 14.5554C36.2186 14.5554 34.9954 15.6663 34.9954 17.2617ZM42.4243 17.2617V17.2853H43.8543V17.2617C43.8543 16.3931 44.457 15.8081 45.3492 15.8081C46.1883 15.8081 46.8028 16.3517 46.8028 17.1021C46.8028 17.7048 46.5133 18.148 45.3492 19.3298L42.507 22.237V23.2947H48.4277V22.0006H44.5988V21.9002L46.3833 20.1098C47.8309 18.6798 48.2978 17.9235 48.2978 17.0076C48.2978 15.5835 47.0805 14.5554 45.3965 14.5554C43.6474 14.5554 42.4243 15.6663 42.4243 17.2617Z" fill="white"/>
<path opacity="0.35" fill-rule="evenodd" clip-rule="evenodd" d="M304.553 14.1184H319.882C320.996 14.1184 321.899 15.0214 321.899 16.1353V21.3793C321.899 22.4932 320.996 23.3962 319.882 23.3962H304.553C303.439 23.3962 302.536 22.4932 302.536 21.3793V16.1353C302.536 15.0214 303.439 14.1184 304.553 14.1184ZM304.553 14.9251C303.885 14.9251 303.343 15.4669 303.343 16.1353V21.3792C303.343 22.0476 303.885 22.5894 304.553 22.5894H319.882C320.55 22.5894 321.092 22.0476 321.092 21.3792V16.1353C321.092 15.4669 320.55 14.9251 319.882 14.9251H304.553Z" fill="white"/>
<path opacity="0.4" fill-rule="evenodd" clip-rule="evenodd" d="M322.705 16.7805C323.424 17.1477 323.915 17.895 323.915 18.7572C323.915 19.6194 323.424 20.3667 322.705 20.7339V16.7805Z" fill="white"/>
<path fill-rule="evenodd" clip-rule="evenodd" d="M304.957 15.7319H319.478C319.924 15.7319 320.285 16.0931 320.285 16.5387V20.9759C320.285 21.4215 319.924 21.7827 319.478 21.7827H304.957C304.511 21.7827 304.15 21.4215 304.15 20.9759V16.5387C304.15 16.0931 304.511 15.7319 304.957 15.7319Z" fill="white"/>
<path fill-rule="evenodd" clip-rule="evenodd" d="M297.682 16.5571C296.14 15.2402 294.192 14.5217 292.155 14.5217C290.113 14.5217 288.159 15.2445 286.616 16.5686L286.485 16.681C286.379 16.7719 286.372 16.9336 286.471 17.0322L287.381 17.9388C287.469 18.0268 287.61 18.0328 287.705 17.9527L287.818 17.858C289.034 16.8367 290.56 16.2808 292.155 16.2808C293.745 16.2808 295.267 16.8329 296.481 17.8479L296.593 17.942C296.689 18.0218 296.83 18.0157 296.918 17.9278L297.827 17.0211C297.926 16.9223 297.92 16.7604 297.813 16.6696L297.682 16.5571ZM292.155 17.3211C293.439 17.3211 294.671 17.7468 295.675 18.5353L295.817 18.6467C295.93 18.7356 295.94 18.903 295.838 19.0045L294.926 19.9142C294.841 19.9984 294.708 20.0081 294.612 19.9369L294.501 19.8543C293.823 19.3504 293.005 19.0801 292.155 19.0801C291.3 19.0801 290.478 19.3538 289.798 19.8634L289.686 19.9468C289.591 20.0185 289.457 20.0091 289.372 19.9247L288.46 19.0153C288.358 18.914 288.368 18.747 288.481 18.658L288.622 18.5465C289.628 17.751 290.866 17.3211 292.155 17.3211ZM292.155 20.1203C292.671 20.1203 293.173 20.2559 293.614 20.5144L293.793 20.6191C293.929 20.6986 293.953 20.8844 293.842 20.9953L292.314 22.5192C292.22 22.6128 292.067 22.6128 291.974 22.5192L290.455 21.0051C290.345 20.8947 290.368 20.7098 290.502 20.6298L290.679 20.5246C291.125 20.2595 291.633 20.1203 292.155 20.1203Z" fill="white"/>
<path opacity="0.25" fill-rule="evenodd" clip-rule="evenodd" d="M281.157 14.5217H281.964C282.409 14.5217 282.771 14.8829 282.771 15.3285V21.7826C282.771 22.2282 282.409 22.5894 281.964 22.5894H281.157C280.711 22.5894 280.35 22.2282 280.35 21.7826V15.3285C280.35 14.8829 280.711 14.5217 281.157 14.5217Z" fill="white"/>
<path fill-rule="evenodd" clip-rule="evenodd" d="M278.333 16.1353H277.527C277.081 16.1353 276.72 16.4965 276.72 16.942V21.7826C276.72 22.2282 277.081 22.5894 277.527 22.5894H278.333C278.779 22.5894 279.14 22.2282 279.14 21.7826V16.942C279.14 16.4965 278.779 16.1353 278.333 16.1353ZM273.896 17.7488H274.703C275.148 17.7488 275.51 18.11 275.51 18.5555V21.7826C275.51 22.2282 275.148 22.5894 274.703 22.5894H273.896C273.451 22.5894 273.089 22.2282 273.089 21.7826V18.5555C273.089 18.11 273.451 17.7488 273.896 17.7488ZM270.266 18.9589H271.072C271.518 18.9589 271.879 19.3201 271.879 19.7657V21.7826C271.879 22.2282 271.518 22.5894 271.072 22.5894H270.266C269.82 22.5894 269.459 22.2282 269.459 21.7826V19.7657C269.459 19.3201 269.82 18.9589 270.266 18.9589Z" fill="white"/>
<path fill-rule="evenodd" clip-rule="evenodd" d="M57.0205 23.2269L60.7011 14.7234L52.1976 18.404H57.0205V23.2269Z" fill="white"/>
</svg>
