<svg width="5" height="159" viewBox="0 0 5 159" fill="none" xmlns="http://www.w3.org/2000/svg">
<g id="Left Bar" filter="url(#filter0_i_0_3498)">
<path fill-rule="evenodd" clip-rule="evenodd" d="M2.48997 0.322266C1.1148 0.322266 0 1.43706 0 2.81223V22.8701C0 24.2453 1.1148 25.3601 2.48997 25.3601C3.86514 25.3601 4.97994 24.2453 4.97994 22.8701V2.81224C4.97994 1.43706 3.86514 0.322266 2.48997 0.322266ZM0 51.3219C0 49.9468 1.1148 48.832 2.48997 48.832C3.86514 48.832 4.97994 49.9468 4.97994 51.3219V94.8514C4.97994 96.2266 3.86514 97.3414 2.48997 97.3414C1.1148 97.3414 0 96.2266 0 94.8514V51.3219ZM0 112.349C0 110.974 1.1148 109.859 2.48997 109.859C3.86514 109.859 4.97994 110.974 4.97994 112.349V155.879C4.97994 157.254 3.86514 158.369 2.48997 158.369C1.1148 158.369 0 157.254 0 155.879V112.349Z" fill="url(#paint0_linear_0_3498)"/>
</g>
<defs>
<filter id="filter0_i_0_3498" x="0" y="0.322266" width="4.97992" height="158.046" filterUnits="userSpaceOnUse" color-interpolation-filters="sRGB">
<feFlood flood-opacity="0" result="BackgroundImageFix"/>
<feBlend mode="normal" in="SourceGraphic" in2="BackgroundImageFix" result="shape"/>
<feColorMatrix in="SourceAlpha" type="matrix" values="0 0 0 0 0 0 0 0 0 0 0 0 0 0 0 0 0 0 127 0" result="hardAlpha"/>
<feOffset dx="1"/>
<feComposite in2="hardAlpha" operator="arithmetic" k2="-1" k3="1"/>
<feColorMatrix type="matrix" values="0 0 0 0 0 0 0 0 0 0 0 0 0 0 0 0 0 0 0.2 0"/>
<feBlend mode="normal" in2="shape" result="effect1_innerShadow_0_3498"/>
</filter>
<linearGradient id="paint0_linear_0_3498" x1="4.97994" y1="2.32399" x2="0.126146" y2="2.32399" gradientUnits="userSpaceOnUse">
<stop/>
<stop offset="1" stop-color="#888888"/>
</linearGradient>
</defs>
</svg>
