<svg width="25" height="24" viewBox="0 0 25 24" fill="none" xmlns="http://www.w3.org/2000/svg">
<g id="Group">
<g id="Group_2">
<path id="Path" fill-rule="evenodd" clip-rule="evenodd" d="M11.5 18.998V7.50298C11.5 6.81298 11.145 6.17198 10.56 5.80698L6.56 3.30698C5.228 2.47498 3.5 3.43198 3.5 5.00298V16.497C3.5 17.187 3.855 17.828 4.44 18.193L8.44 20.693C9.772 21.526 11.5 20.568 11.5 18.998Z" stroke="url(#paint0_linear_317_748)" stroke-width="1.5" stroke-linecap="round" stroke-linejoin="round"/>
<path id="Path_2" d="M21.5 11H15.5" stroke="url(#paint1_linear_317_748)" stroke-width="1.5" stroke-linecap="round" stroke-linejoin="round"/>
<path id="Path_3" d="M17.5 9L15.5 11L17.5 13" stroke="url(#paint2_linear_317_748)" stroke-width="1.5" stroke-linecap="round" stroke-linejoin="round"/>
<path id="Path_4" d="M11.5 19H15.5C16.605 19 17.5 18.105 17.5 17V16" stroke="url(#paint3_linear_317_748)" stroke-width="1.5" stroke-linecap="round" stroke-linejoin="round"/>
<path id="Path_5" d="M17.5 6V5C17.5 3.895 16.605 3 15.5 3H5.5" stroke="url(#paint4_linear_317_748)" stroke-width="1.5" stroke-linecap="round" stroke-linejoin="round"/>
</g>
</g>
<defs>
<linearGradient id="paint0_linear_317_748" x1="7.5" y1="3" x2="7.5" y2="21.0004" gradientUnits="userSpaceOnUse">
<stop stop-color="#7039F0"/>
<stop offset="0.811925" stop-color="#A657F8"/>
</linearGradient>
<linearGradient id="paint1_linear_317_748" x1="18.5" y1="10.5" x2="18.5" y2="11.5" gradientUnits="userSpaceOnUse">
<stop stop-color="#7039F0"/>
<stop offset="0.811925" stop-color="#A657F8"/>
</linearGradient>
<linearGradient id="paint2_linear_317_748" x1="16.5" y1="9" x2="16.5" y2="13" gradientUnits="userSpaceOnUse">
<stop stop-color="#7039F0"/>
<stop offset="0.811925" stop-color="#A657F8"/>
</linearGradient>
<linearGradient id="paint3_linear_317_748" x1="14.5" y1="16" x2="14.5" y2="19" gradientUnits="userSpaceOnUse">
<stop stop-color="#7039F0"/>
<stop offset="0.811925" stop-color="#A657F8"/>
</linearGradient>
<linearGradient id="paint4_linear_317_748" x1="11.5" y1="3" x2="11.5" y2="6" gradientUnits="userSpaceOnUse">
<stop stop-color="#7039F0"/>
<stop offset="0.811925" stop-color="#A657F8"/>
</linearGradient>
</defs>
</svg>
