<svg width="33" height="32" viewBox="0 0 33 32" fill="none" xmlns="http://www.w3.org/2000/svg">
<g id="Group">
<g id="Group_2">
<path id="Path" d="M19.2662 18H25.9329C26.6689 18 27.2662 18.5973 27.2662 19.3333V24.6667C27.2662 25.4027 26.6689 26 25.9329 26H20.5996C19.8636 26 19.2662 25.4027 19.2662 24.6667V18C19.2662 10 20.5996 8.66667 24.5996 6" stroke="#00FF1A" stroke-width="1.5" stroke-linecap="round" stroke-linejoin="round"/>
<path id="Path_2" d="M5.93292 18H12.5996C13.3356 18 13.9329 18.5973 13.9329 19.3333V24.6667C13.9329 25.4027 13.3356 26 12.5996 26H7.26626C6.53026 26 5.93292 25.4027 5.93292 24.6667V18C5.93292 10 7.26626 8.66667 11.2663 6" stroke="#00FF1A" stroke-width="1.5" stroke-linecap="round" stroke-linejoin="round"/>
</g>
</g>
</svg>
