<svg width="136" height="137" viewBox="0 0 136 137" fill="none" xmlns="http://www.w3.org/2000/svg">
<circle cx="68.19" cy="68.5415" r="67.7681" fill="white"/>
<g filter="url(#filter0_d_0_3382)">
<rect x="17.7109" y="18.7129" width="103.266" height="103.266" rx="51.6329" fill="url(#paint0_linear_0_3382)" shape-rendering="crispEdges"/>
<path d="M28.1626 70.0801C28.1626 47.1336 46.7644 28.5318 69.7109 28.5318C92.6574 28.5318 111.259 47.1336 111.259 70.0801C111.259 93.0266 92.6574 111.628 69.7109 111.628C46.7644 111.628 28.1626 93.0266 28.1626 70.0801Z" stroke="url(#paint1_linear_0_3382)" stroke-width="0.806763"/>
<path d="M59.9128 80.8696C59.8598 80.3734 59.6363 79.9871 59.2424 79.7105C58.8522 79.434 58.3447 79.2958 57.7197 79.2958C57.2803 79.2958 56.9034 79.3621 56.589 79.4946C56.2746 79.6272 56.0341 79.8071 55.8674 80.0344C55.7007 80.2617 55.6155 80.5211 55.6117 80.8128C55.6117 81.0552 55.6666 81.2655 55.7765 81.4435C55.8901 81.6215 56.0435 81.773 56.2367 81.898C56.4299 82.0193 56.6439 82.1215 56.8788 82.2049C57.1136 82.2882 57.3503 82.3583 57.589 82.4151L58.6799 82.6878C59.1193 82.7901 59.5416 82.9283 59.9469 83.1026C60.356 83.2768 60.7216 83.4965 61.0435 83.7617C61.3693 84.0268 61.6269 84.3469 61.8163 84.7219C62.0056 85.0969 62.1003 85.5363 62.1003 86.0401C62.1003 86.7219 61.9261 87.3223 61.5776 87.8412C61.2291 88.3564 60.7253 88.7598 60.0663 89.0514C59.411 89.3393 58.6174 89.4833 57.6856 89.4833C56.7803 89.4833 55.9943 89.3431 55.3276 89.0628C54.6647 88.7825 54.1458 88.3734 53.7708 87.8355C53.3996 87.2977 53.1988 86.6424 53.1685 85.8696H55.2424C55.2727 86.2749 55.3977 86.6121 55.6174 86.881C55.8371 87.1499 56.1231 87.3507 56.4753 87.4833C56.8314 87.6158 57.2291 87.6821 57.6685 87.6821C58.1269 87.6821 58.5284 87.6139 58.8731 87.4776C59.2216 87.3374 59.4943 87.1443 59.6913 86.898C59.8882 86.648 59.9886 86.3564 59.9924 86.023C59.9886 85.72 59.8996 85.47 59.7253 85.273C59.5511 85.0723 59.3068 84.9056 58.9924 84.773C58.6818 84.6367 58.3181 84.5155 57.9015 84.4094L56.5776 84.0685C55.6193 83.8223 54.8617 83.4492 54.3049 82.9492C53.7519 82.4454 53.4753 81.7768 53.4753 80.9435C53.4753 80.2579 53.661 79.6575 54.0322 79.1424C54.4072 78.6272 54.9166 78.2276 55.5606 77.9435C56.2045 77.6556 56.9337 77.5117 57.7481 77.5117C58.5738 77.5117 59.2973 77.6556 59.9185 77.9435C60.5435 78.2276 61.0341 78.6234 61.3901 79.131C61.7462 79.6348 61.9299 80.2143 61.9413 80.8696H59.9128ZM68.2467 80.5799V82.1708H63.2296V80.5799H68.2467ZM64.4682 78.4889H66.5251V86.6821C66.5251 86.9586 66.5667 87.1708 66.6501 87.3185C66.7372 87.4624 66.8508 87.5609 66.991 87.6139C67.1311 87.667 67.2864 87.6935 67.4569 87.6935C67.5857 87.6935 67.7031 87.684 67.8092 87.6651C67.919 87.6461 68.0023 87.6291 68.0592 87.6139L68.4057 89.2219C68.2959 89.2598 68.1387 89.3014 67.9342 89.3469C67.7334 89.3924 67.4872 89.4189 67.1955 89.4264C66.6804 89.4416 66.2163 89.3639 65.8035 89.1935C65.3906 89.0193 65.0629 88.7503 64.8205 88.3867C64.5819 88.023 64.4645 87.5685 64.4682 87.023V78.4889ZM73.6799 89.4776C72.8276 89.4776 72.089 89.2901 71.464 88.9151C70.839 88.5401 70.3541 88.0155 70.0094 87.3412C69.6685 86.667 69.4981 85.8791 69.4981 84.9776C69.4981 84.0761 69.6685 83.2863 70.0094 82.6083C70.3541 81.9302 70.839 81.4037 71.464 81.0287C72.089 80.6537 72.8276 80.4662 73.6799 80.4662C74.5322 80.4662 75.2708 80.6537 75.8958 81.0287C76.5208 81.4037 77.0038 81.9302 77.3447 82.6083C77.6894 83.2863 77.8617 84.0761 77.8617 84.9776C77.8617 85.8791 77.6894 86.667 77.3447 87.3412C77.0038 88.0155 76.5208 88.5401 75.8958 88.9151C75.2708 89.2901 74.5322 89.4776 73.6799 89.4776ZM73.6913 87.8299C74.1534 87.8299 74.5397 87.703 74.8503 87.4492C75.161 87.1916 75.392 86.8469 75.5435 86.4151C75.6988 85.9833 75.7765 85.5022 75.7765 84.9719C75.7765 84.4378 75.6988 83.9549 75.5435 83.523C75.392 83.0874 75.161 82.7408 74.8503 82.4833C74.5397 82.2257 74.1534 82.0969 73.6913 82.0969C73.2178 82.0969 72.8238 82.2257 72.5094 82.4833C72.1988 82.7408 71.9659 83.0874 71.8106 83.523C71.6591 83.9549 71.5833 84.4378 71.5833 84.9719C71.5833 85.5022 71.6591 85.9833 71.8106 86.4151C71.9659 86.8469 72.1988 87.1916 72.5094 87.4492C72.8238 87.703 73.2178 87.8299 73.6913 87.8299ZM79.6074 92.5799V80.5799H81.6302V82.023H81.7495C81.8556 81.8109 82.0052 81.5855 82.1984 81.3469C82.3915 81.1045 82.6529 80.898 82.9824 80.7276C83.312 80.5533 83.7324 80.4662 84.2438 80.4662C84.9181 80.4662 85.526 80.6386 86.0677 80.9833C86.6131 81.3242 87.0449 81.8299 87.3631 82.5003C87.6851 83.167 87.8461 83.9852 87.8461 84.9549C87.8461 85.9132 87.6889 86.7276 87.3745 87.398C87.0601 88.0685 86.6321 88.5799 86.0904 88.9321C85.5487 89.2844 84.9351 89.4605 84.2495 89.4605C83.7495 89.4605 83.3347 89.3772 83.0052 89.2105C82.6756 89.0439 82.4105 88.8431 82.2097 88.6083C82.0127 88.3696 81.8593 88.1443 81.7495 87.9321H81.6643V92.5799H79.6074ZM81.6245 84.9435C81.6245 85.5079 81.704 86.0022 81.8631 86.4264C82.026 86.8507 82.259 87.1821 82.562 87.4208C82.8688 87.6556 83.24 87.773 83.6756 87.773C84.1302 87.773 84.5109 87.6518 84.8177 87.4094C85.1245 87.1632 85.3556 86.828 85.5109 86.4037C85.6699 85.9757 85.7495 85.4889 85.7495 84.9435C85.7495 84.4018 85.6718 83.9208 85.5165 83.5003C85.3612 83.0799 85.1302 82.7503 84.8234 82.5117C84.5165 82.273 84.134 82.1537 83.6756 82.1537C83.2362 82.1537 82.8631 82.2693 82.5563 82.5003C82.2495 82.7314 82.0165 83.0552 81.8574 83.4719C81.7021 83.8886 81.6245 84.3791 81.6245 84.9435Z" fill="white"/>
<path d="M74.8419 56.0745C75.8571 57.09 76.5484 58.3838 76.8284 59.7922C77.1084 61.2006 76.9645 62.6604 76.4148 63.987C75.8652 65.3136 74.9346 66.4475 73.7406 67.2452C72.5466 68.0429 71.1429 68.4687 69.7069 68.4687C68.2709 68.4687 66.8672 68.0429 65.6732 67.2452C64.4792 66.4475 63.5486 65.3136 62.9989 63.987C62.4493 62.6604 62.3054 61.2006 62.5854 59.7922C62.8653 58.3838 63.5566 57.09 64.5718 56.0745" stroke="white" stroke-width="1.61353" stroke-linecap="round" stroke-linejoin="round"/>
<path d="M69.7109 52.3313V60.3989" stroke="white" stroke-width="1.61353" stroke-linecap="round" stroke-linejoin="round"/>
</g>
<defs>
<filter id="filter0_d_0_3382" x="5.71094" y="7.71289" width="127.266" height="127.266" filterUnits="userSpaceOnUse" color-interpolation-filters="sRGB">
<feFlood flood-opacity="0" result="BackgroundImageFix"/>
<feColorMatrix in="SourceAlpha" type="matrix" values="0 0 0 0 0 0 0 0 0 0 0 0 0 0 0 0 0 0 127 0" result="hardAlpha"/>
<feOffset dy="1"/>
<feGaussianBlur stdDeviation="6"/>
<feComposite in2="hardAlpha" operator="out"/>
<feColorMatrix type="matrix" values="0 0 0 0 0.439216 0 0 0 0 0.223529 0 0 0 0 0.941176 0 0 0 1 0"/>
<feBlend mode="normal" in2="BackgroundImageFix" result="effect1_dropShadow_0_3382"/>
<feBlend mode="normal" in="SourceGraphic" in2="effect1_dropShadow_0_3382" result="shape"/>
</filter>
<linearGradient id="paint0_linear_0_3382" x1="69.3438" y1="18.7129" x2="69.3438" y2="121.979" gradientUnits="userSpaceOnUse">
<stop stop-color="#7039F0"/>
<stop offset="0.811925" stop-color="#A657F8"/>
</linearGradient>
<linearGradient id="paint1_linear_0_3382" x1="69.7109" y1="28.1284" x2="69.7109" y2="112.032" gradientUnits="userSpaceOnUse">
<stop stop-color="#7039F0"/>
<stop offset="0.811925" stop-color="#A657F8"/>
</linearGradient>
</defs>
</svg>
